<svg width="345" height="320" viewBox="0 0 345 320" fill="none" xmlns="http://www.w3.org/2000/svg">
    <path d="M60.2253 92.9336L61.5535 95.6243L64.5131 96.059L62.3733 98.1509L62.8734 101.104L60.2253 99.7095L57.5772 101.104L58.0773 98.1509L55.9375 96.059L58.8971 95.6243L60.2253 92.9336Z"
          fill="#EBEBEB"/>
    <path d="M325.569 219.461L326.897 222.152L329.857 222.578L327.717 224.67L328.217 227.623L325.569 226.229L322.921 227.623L323.421 224.67L321.281 222.578L324.241 222.152L325.569 219.461Z"
          fill="#F5F5F5"/>
    <path d="M273.007 297.457L274.335 300.148L277.303 300.574L275.155 302.674L275.663 305.627L273.007 304.233L270.358 305.627L270.867 302.674L268.719 300.574L271.687 300.148L273.007 297.457Z"
          fill="#F5F5F5"/>
    <path d="M152.775 45.2822L153.267 46.283L154.366 46.4389C154.645 46.4799 154.751 46.8162 154.555 47.0131L153.759 47.7924L153.948 48.8917C153.997 49.1624 153.71 49.3756 153.464 49.2444L152.48 48.7276L151.496 49.2444C151.25 49.3756 150.963 49.1624 151.012 48.8917L151.201 47.7924L150.405 47.0131C150.209 46.8162 150.315 46.4799 150.594 46.4389L151.693 46.283L152.185 45.2822C152.308 45.0361 152.66 45.0361 152.783 45.2822H152.775Z"
          fill="#EBEBEB"/>
    <path d="M17.3611 284.692L17.8531 285.693L18.9519 285.849C19.2307 285.89 19.3373 286.226 19.1405 286.423L18.3451 287.203L18.5337 288.302C18.5829 288.573 18.2959 288.786 18.0499 288.655L17.0659 288.138L16.082 288.655C15.836 288.786 15.549 288.573 15.5982 288.302L15.7868 287.203L14.9914 286.423C14.7946 286.226 14.9012 285.89 15.18 285.849L16.2788 285.693L16.7708 284.692C16.8938 284.446 17.2463 284.446 17.3693 284.692H17.3611Z"
          fill="#F5F5F5"/>
    <path d="M39.4783 34.7393L39.9703 35.7401L41.0691 35.8959C41.3397 35.9369 41.4545 36.2733 41.2577 36.4701L40.4623 37.2495L40.6509 38.3487C40.7001 38.6194 40.4131 38.8327 40.1671 38.7014L39.1831 38.1846L38.1992 38.7014C37.9532 38.8327 37.6662 38.6194 37.7154 38.3487L37.904 37.2495L37.1086 36.4701C36.9118 36.2733 37.0184 35.9369 37.2972 35.8959L38.396 35.7401L38.8879 34.7393C39.0109 34.4932 39.3635 34.4932 39.4865 34.7393H39.4783Z"
          fill="#EBEBEB"/>
    <path d="M38.1508 232.454C38.1508 233.053 37.6668 233.545 37.0598 233.545C36.4527 233.545 35.9688 233.061 35.9688 232.454C35.9688 231.847 36.4527 231.363 37.0598 231.363C37.6668 231.363 38.1508 231.847 38.1508 232.454Z"
          fill="#EBEBEB"/>
    <path d="M193.549 95.927C193.549 96.5258 193.065 97.018 192.458 97.018C191.851 97.018 191.367 96.534 191.367 95.927C191.367 95.3199 191.851 94.8359 192.458 94.8359C193.065 94.8359 193.549 95.3199 193.549 95.927Z"
          fill="#EBEBEB"/>
    <path d="M137.002 35.6418C137.002 36.2406 136.518 36.7328 135.911 36.7328C135.304 36.7328 134.82 36.2489 134.82 35.6418C134.82 35.0348 135.304 34.5508 135.911 34.5508C136.518 34.5508 137.002 35.0348 137.002 35.6418Z"
          fill="#F5F5F5"/>
    <path d="M138.735 301.539C141.974 300.774 143.98 297.527 143.215 294.286C142.451 291.045 139.205 289.038 135.966 289.802C132.727 290.567 130.721 293.815 131.486 297.056C132.25 300.297 135.496 302.304 138.735 301.539Z"
          fill="#F0F0F0"/>
    <path d="M135.271 292.148C133.992 292.148 132.803 292.559 131.836 293.264C131.516 294.002 131.336 294.814 131.336 295.668C131.336 298.998 134.033 301.689 137.362 301.689C138.485 301.689 139.543 301.377 140.444 300.836C140.444 300.836 140.444 300.833 140.444 300.827C140.895 299.991 141.15 299.039 141.15 298.022C141.15 294.782 138.518 292.148 135.271 292.148Z"
          fill="#E6E6E6"/>
    <path d="M88.6147 190.88H38.7188V168.346L88.6065 109.004H112.48V169.626H124.852V190.889H112.48V209.321H88.6065V190.889L88.6147 190.88ZM88.6147 169.618V138.577L62.2484 169.618H88.6147Z"
          fill="#407BFF"/>
    <path d="M133.391 159.601C133.391 140.857 136.761 127.732 143.508 120.242C150.256 112.753 160.528 109.004 174.335 109.004C180.967 109.004 186.411 109.824 190.674 111.457C194.929 113.097 198.405 115.222 201.094 117.847C203.783 120.472 205.899 123.228 207.448 126.124C208.998 129.02 210.236 132.391 211.179 136.247C213.015 143.605 213.933 151.275 213.933 159.257C213.933 177.156 210.908 190.249 204.858 198.55C198.807 206.852 188.387 210.995 173.589 210.995C165.292 210.995 158.594 209.674 153.486 207.024C148.378 204.375 144.181 200.503 140.909 195.384C138.532 191.75 136.687 186.787 135.359 180.479C134.039 174.179 133.375 167.214 133.375 159.585L133.391 159.601ZM160.553 159.667C160.553 172.226 161.66 180.807 163.882 185.401C166.103 189.994 169.317 192.3 173.531 192.3C176.31 192.3 178.721 191.323 180.762 189.371C182.804 187.419 184.304 184.334 185.271 180.118C186.239 175.901 186.714 169.33 186.714 160.405C186.714 147.313 185.607 138.511 183.386 133.999C181.164 129.487 177.835 127.24 173.4 127.24C168.965 127.24 165.603 129.537 163.586 134.139C161.57 138.741 160.561 147.247 160.561 159.667H160.553Z"
          fill="#407BFF"/>
    <path d="M272.31 190.88H222.422V168.346L272.31 109.004H296.184V169.626H308.555V190.889H296.184V209.321H272.31V190.889V190.88ZM272.31 169.618V138.577L245.943 169.618H272.31Z"
          fill="#407BFF"/>
    <g opacity="0.3">
        <path d="M132.285 74.3778C132.285 75.2227 131.597 75.9118 130.752 75.9118C129.908 75.9118 129.219 75.2227 129.219 74.3778C129.219 73.5328 129.908 72.8438 130.752 72.8438C131.597 72.8438 132.285 73.5328 132.285 74.3778Z"
              fill="#407BFF"/>
        <path d="M27.3563 133.302C27.9543 133.302 28.4391 132.818 28.4391 132.22C28.4391 131.622 27.9543 131.137 27.3563 131.137C26.7582 131.137 26.2734 131.622 26.2734 132.22C26.2734 132.818 26.7582 133.302 27.3563 133.302Z"
              fill="#407BFF"/>
        <path d="M206.159 291.437C207.015 291.437 207.709 290.743 207.709 289.886C207.709 289.03 207.015 288.336 206.159 288.336C205.303 288.336 204.609 289.03 204.609 289.886C204.609 290.743 205.303 291.437 206.159 291.437Z"
              fill="#407BFF"/>
        <path d="M243.411 228.353C244.009 228.353 244.494 227.868 244.494 227.27C244.494 226.672 244.009 226.188 243.411 226.188C242.813 226.188 242.328 226.672 242.328 227.27C242.328 227.868 242.813 228.353 243.411 228.353Z"
              fill="#407BFF"/>
        <path d="M315.298 33.3641C315.298 33.9629 314.814 34.4469 314.216 34.4469C313.617 34.4469 313.133 33.9629 313.133 33.3641C313.133 32.7652 313.617 32.2812 314.216 32.2812C314.814 32.2812 315.298 32.7652 315.298 33.3641Z"
              fill="#407BFF"/>
        <path d="M109.166 11.493C109.166 12.0918 108.682 12.5758 108.083 12.5758C107.484 12.5758 107 12.0918 107 11.493C107 10.8941 107.484 10.4102 108.083 10.4102C108.682 10.4102 109.166 10.8941 109.166 11.493Z"
              fill="#407BFF"/>
        <path d="M195.2 68.3414C195.798 68.3414 196.283 67.8566 196.283 67.2586C196.283 66.6606 195.798 66.1758 195.2 66.1758C194.602 66.1758 194.117 66.6606 194.117 67.2586C194.117 67.8566 194.602 68.3414 195.2 68.3414Z"
              fill="#407BFF"/>
    </g>
    <path d="M83.33 68.3489C93.2507 68.3489 101.293 60.302 101.293 50.3756C101.293 40.4493 93.2507 32.4023 83.33 32.4023C73.4094 32.4023 65.3672 40.4493 65.3672 50.3756C65.3672 60.302 73.4094 68.3489 83.33 68.3489Z"
          fill="#407BFF"/>
    <path opacity="0.7"
          d="M83.33 68.3489C93.2507 68.3489 101.293 60.302 101.293 50.3756C101.293 40.4493 93.2507 32.4023 83.33 32.4023C73.4094 32.4023 65.3672 40.4493 65.3672 50.3756C65.3672 60.302 73.4094 68.3489 83.33 68.3489Z"
          fill="white"/>
    <path opacity="0.2"
          d="M77.1402 36.8164C74.6233 36.8164 72.2293 37.3332 70.0567 38.2684C67.1463 41.4594 65.3672 45.7169 65.3672 50.3764C65.3672 60.3023 73.4099 68.3414 83.3218 68.3414C85.847 68.3414 88.2573 67.8246 90.4381 66.8813C93.3322 63.682 95.0949 59.4409 95.0949 54.7897C95.0949 44.8556 87.0522 36.8164 77.132 36.8164H77.1402Z"
          fill="#407BFF"/>
    <path opacity="0.2"
          d="M75.3502 41.5664C75.3502 42.477 74.6123 43.2071 73.7103 43.2071C72.8083 43.2071 72.0703 42.4688 72.0703 41.5664C72.0703 40.6641 72.8083 39.9258 73.7103 39.9258C74.6123 39.9258 75.3502 40.6641 75.3502 41.5664Z"
          fill="#407BFF"/>
    <path opacity="0.2"
          d="M94.6706 39.9258C94.6706 40.8364 93.9326 41.5665 93.0306 41.5665C92.1286 41.5665 91.3906 40.8282 91.3906 39.9258C91.3906 39.0234 92.1286 38.2852 93.0306 38.2852C93.9326 38.2852 94.6706 39.0234 94.6706 39.9258Z"
          fill="#407BFF"/>
    <path opacity="0.2"
          d="M91.3791 51.6399C91.3791 53.1247 90.1737 54.3305 88.6895 54.3305C87.2054 54.3305 86 53.1247 86 51.6399C86 50.1551 87.2054 48.9492 88.6895 48.9492C90.1737 48.9492 91.3791 50.1551 91.3791 51.6399Z"
          fill="#407BFF"/>
    <path opacity="0.2"
          d="M82.8459 59.3C82.8459 61.2852 81.239 62.8931 79.255 62.8931C77.271 62.8931 75.6641 61.2852 75.6641 59.3C75.6641 57.3149 77.271 55.707 79.255 55.707C81.239 55.707 82.8459 57.3149 82.8459 59.3Z"
          fill="#407BFF"/>
    <path d="M296.219 267.18C298.22 258.701 292.972 250.206 284.498 248.206C276.023 246.205 267.531 251.458 265.53 259.937C263.529 268.415 268.776 276.911 277.251 278.911C285.725 280.911 294.218 275.659 296.219 267.18Z"
          fill="#407BFF"/>
    <path opacity="0.3"
          d="M296.219 267.18C298.22 258.701 292.972 250.206 284.498 248.206C276.023 246.205 267.531 251.458 265.53 259.937C263.529 268.415 268.776 276.911 277.251 278.911C285.725 280.911 294.218 275.659 296.219 267.18Z"
          fill="white"/>
    <path opacity="0.4"
          d="M290.831 251.34C289.396 250.905 287.871 250.676 286.289 250.676C277.582 250.676 270.523 257.739 270.523 266.451C270.523 271.389 272.786 275.786 276.336 278.682C277.771 279.116 279.296 279.346 280.878 279.346C289.585 279.346 296.644 272.283 296.644 263.571C296.644 258.633 294.381 254.228 290.831 251.34Z"
          fill="#407BFF"/>
    <path d="M265.823 268.247C248.991 276.171 261.543 282.283 285.261 273.751C307.217 265.852 315.571 255.893 295.96 258.977C296.969 263.169 269.471 273.891 265.823 268.239V268.247Z"
          fill="#407BFF"/>
    <path opacity="0.2"
          d="M290.636 109.004C268.59 123.909 240.052 143.564 232.173 190.88H230.492C238.158 144.138 265.655 123.967 287.709 109.004H290.636Z"
          fill="black"/>
    <path d="M176.61 257.016C162.697 257.016 148.891 250.732 142.185 240.453C138.044 234.104 133.232 220.807 147.563 203.063L148.842 204.097C138.708 216.647 136.831 229.239 143.562 239.559C151.752 252.118 171.109 258.435 187.612 253.939C204.526 249.337 214.79 234.613 215.782 213.555C219.168 141.522 257.414 119.341 285.346 103.139C302.694 93.074 315.23 85.7977 312.475 70.4577C312.09 68.333 311.245 66.8564 309.884 65.9623C306.318 63.608 299.349 65.2322 291.282 67.1189C275.451 70.8104 253.774 75.8636 240.861 53.8871L242.272 53.0586C254.577 73.9932 274.721 69.301 290.905 65.5275C299.341 63.5587 306.63 61.8607 310.786 64.6005C312.541 65.7572 313.623 67.5865 314.09 70.1787C317.05 86.6508 303.424 94.5588 286.166 104.567C258.57 120.579 220.767 142.507 217.422 213.645C216.397 235.466 205.69 250.732 188.047 255.531C184.325 256.54 180.463 257.024 176.618 257.024L176.61 257.016Z"
          fill="#407BFF"/>
    <path opacity="0.2"
          d="M176.61 257.016C162.697 257.016 148.891 250.732 142.185 240.453C138.044 234.104 133.232 220.807 147.563 203.063L148.842 204.097C138.708 216.647 136.831 229.239 143.562 239.559C151.752 252.118 171.109 258.435 187.612 253.939C204.526 249.337 214.79 234.613 215.782 213.555C219.168 141.522 257.414 119.341 285.346 103.139C302.694 93.074 315.23 85.7977 312.475 70.4577C312.09 68.333 311.245 66.8564 309.884 65.9623C306.318 63.608 299.349 65.2322 291.282 67.1189C275.451 70.8104 253.774 75.8636 240.861 53.8871L242.272 53.0586C254.577 73.9932 274.721 69.301 290.905 65.5275C299.341 63.5587 306.63 61.8607 310.786 64.6005C312.541 65.7572 313.623 67.5865 314.09 70.1787C317.05 86.6508 303.424 94.5588 286.166 104.567C258.57 120.579 220.767 142.507 217.422 213.645C216.397 235.466 205.69 250.732 188.047 255.531C184.325 256.54 180.463 257.024 176.618 257.024L176.61 257.016Z"
          fill="white"/>
    <path d="M223.946 34.453C229.57 34.3546 235.079 36.2003 235.079 36.2003C235.079 36.2003 244.065 51.5978 245.163 55.1252C244.786 58.6033 238.916 64.3046 238.916 64.3046L223.938 34.453H223.946Z"
          fill="#407BFF"/>
    <path opacity="0.3"
          d="M223.946 34.453C229.57 34.3546 235.079 36.2003 235.079 36.2003C235.079 36.2003 244.065 51.5978 245.163 55.1252C244.786 58.6033 238.916 64.3046 238.916 64.3046L223.938 34.453H223.946Z"
          fill="white"/>
    <path d="M250.667 109.251C247.273 104.945 243.945 100.564 241.19 95.8145C240.501 94.6251 239.845 93.4192 239.231 92.1887C238.878 91.4914 238.542 90.7859 238.214 90.0805C237.927 89.4652 237.288 88.5547 237.23 87.882C236.246 77.4885 239.804 69.8349 236.386 61.4922L222.883 66.7751C222.883 66.7751 224.031 81.6393 226.654 90.5316C228.277 96.0524 231.959 100.827 235.508 105.248C236.615 106.635 237.689 108.046 238.796 109.432C239.845 110.744 241.018 111.942 242.067 113.246C243.666 115.223 244.191 117.118 242.977 119.448C242.912 119.571 242.846 119.694 242.772 119.817C242.428 120.424 244.043 121.113 245.051 119.834C246.724 117.717 246.462 117.848 247.888 116.044C248.757 114.944 249.749 113.763 250.61 112.738C251.446 111.737 251.471 110.285 250.659 109.251H250.667Z"
          fill="#407BFF"/>
    <path opacity="0.7"
          d="M250.667 109.251C247.273 104.945 243.945 100.564 241.19 95.8145C240.501 94.6251 239.845 93.4192 239.231 92.1887C238.878 91.4914 238.542 90.7859 238.214 90.0805C237.927 89.4652 237.288 88.5547 237.23 87.882C236.246 77.4885 239.804 69.8349 236.386 61.4922L222.883 66.7751C222.883 66.7751 224.031 81.6393 226.654 90.5316C228.277 96.0524 231.959 100.827 235.508 105.248C236.615 106.635 237.689 108.046 238.796 109.432C239.845 110.744 241.018 111.942 242.067 113.246C243.666 115.223 244.191 117.118 242.977 119.448C242.912 119.571 242.846 119.694 242.772 119.817C242.428 120.424 244.043 121.113 245.051 119.834C246.724 117.717 246.462 117.848 247.888 116.044C248.757 114.944 249.749 113.763 250.61 112.738C251.446 111.737 251.471 110.285 250.659 109.251H250.667Z"
          fill="white"/>
    <path opacity="0.3"
          d="M247.366 104.977C245.554 107.167 241.881 109.997 240.266 111.145C240.618 111.539 240.971 111.941 241.315 112.343C244.652 110.161 247.284 107.339 248.284 106.191C247.972 105.789 247.669 105.387 247.366 104.977Z"
          fill="#407BFF"/>
    <path opacity="0.3"
          d="M250.662 109.252C250.629 109.211 250.596 109.178 250.563 109.129C249.997 109.72 249.595 110.671 249.53 111.729C249.472 112.459 249.595 113.132 249.841 113.657C250.112 113.337 250.366 113.025 250.621 112.73C251.466 111.729 251.474 110.277 250.662 109.252Z"
          fill="#407BFF"/>
    <path d="M220.745 44.2959C219.335 46.3549 217.67 48.3811 215.514 50.194C214.448 51.1046 213.227 51.9331 211.891 52.6386C211.218 52.9831 210.505 53.2785 209.775 53.5245L209.226 53.705L209.046 53.7624C208.914 53.8035 208.783 53.8363 208.652 53.8691C208.406 53.9265 208.152 53.9593 207.939 53.9839C207.053 54.0496 206.406 53.9265 205.881 53.7953C204.832 53.5081 204.135 53.1308 203.471 52.7616C202.815 52.3843 202.249 51.9987 201.708 51.605C200.642 50.7929 199.675 49.9725 198.773 49.103C196.961 47.3721 195.354 45.5756 193.862 43.574C193.182 42.6635 193.37 41.3756 194.28 40.6947C194.985 40.1697 195.912 40.1615 196.609 40.6045L196.674 40.6455C198.609 41.876 200.56 43.1721 202.462 44.3287C203.421 44.8947 204.364 45.469 205.291 45.9119C205.742 46.1416 206.193 46.3549 206.594 46.5026C206.988 46.6584 207.373 46.7405 207.48 46.7241C207.521 46.7241 207.48 46.6666 207.168 46.6748C207.094 46.6748 206.988 46.6913 206.889 46.7077C206.832 46.7159 206.766 46.7323 206.709 46.7569C206.652 46.7733 206.734 46.7405 206.734 46.7405L207.004 46.601C207.365 46.4205 207.709 46.1909 208.062 45.953C208.767 45.4772 209.431 44.8783 210.111 44.2139C211.464 42.8768 212.76 41.2033 214.129 39.4642L214.145 39.4396C215.547 37.6595 218.13 37.356 219.909 38.7669C221.614 40.1123 221.95 42.5486 220.745 44.3123V44.2959Z"
          fill="#407BFF"/>
    <path opacity="0.7"
          d="M220.745 44.2959C219.335 46.3549 217.67 48.3811 215.514 50.194C214.448 51.1046 213.227 51.9331 211.891 52.6386C211.218 52.9831 210.505 53.2785 209.775 53.5245L209.226 53.705L209.046 53.7624C208.914 53.8035 208.783 53.8363 208.652 53.8691C208.406 53.9265 208.152 53.9593 207.939 53.9839C207.053 54.0496 206.406 53.9265 205.881 53.7953C204.832 53.5081 204.135 53.1308 203.471 52.7616C202.815 52.3843 202.249 51.9987 201.708 51.605C200.642 50.7929 199.675 49.9725 198.773 49.103C196.961 47.3721 195.354 45.5756 193.862 43.574C193.182 42.6635 193.37 41.3756 194.28 40.6947C194.985 40.1697 195.912 40.1615 196.609 40.6045L196.674 40.6455C198.609 41.876 200.56 43.1721 202.462 44.3287C203.421 44.8947 204.364 45.469 205.291 45.9119C205.742 46.1416 206.193 46.3549 206.594 46.5026C206.988 46.6584 207.373 46.7405 207.48 46.7241C207.521 46.7241 207.48 46.6666 207.168 46.6748C207.094 46.6748 206.988 46.6913 206.889 46.7077C206.832 46.7159 206.766 46.7323 206.709 46.7569C206.652 46.7733 206.734 46.7405 206.734 46.7405L207.004 46.601C207.365 46.4205 207.709 46.1909 208.062 45.953C208.767 45.4772 209.431 44.8783 210.111 44.2139C211.464 42.8768 212.76 41.2033 214.129 39.4642L214.145 39.4396C215.547 37.6595 218.13 37.356 219.909 38.7669C221.614 40.1123 221.95 42.5486 220.745 44.3123V44.2959Z"
          fill="white"/>
    <path d="M190.768 38.9321L191.727 40.5482C191.727 40.5482 192.465 42.6974 193.933 43.0912L197.909 41.8032L197.712 41.4669C197.204 40.6876 197.261 39.1946 197.433 37.9477C197.614 36.7008 196.966 36.6598 196.491 36.9633C196.212 37.1438 196.023 37.7098 195.794 38.3251C195.597 38.0544 195.392 37.7919 195.154 37.5622L193.941 36.3481C193.416 35.8231 192.572 35.7985 192.022 36.2907L191.039 37.1684C190.539 37.6114 190.424 38.3579 190.768 38.9321Z"
          fill="#407BFF"/>
    <path opacity="0.7"
          d="M190.768 38.9321L191.727 40.5482C191.727 40.5482 192.465 42.6974 193.933 43.0912L197.909 41.8032L197.712 41.4669C197.204 40.6876 197.261 39.1946 197.433 37.9477C197.614 36.7008 196.966 36.6598 196.491 36.9633C196.212 37.1438 196.023 37.7098 195.794 38.3251C195.597 38.0544 195.392 37.7919 195.154 37.5622L193.941 36.3481C193.416 35.8231 192.572 35.7985 192.022 36.2907L191.039 37.1684C190.539 37.6114 190.424 38.3579 190.768 38.9321Z"
          fill="white"/>
    <path d="M227.982 33.0329C224.169 33.9599 218.93 36.1337 215.397 38.3404C214.143 39.1197 213.519 40.6045 213.815 42.0483C215.389 49.7921 218.988 60.161 222.874 66.7646L241.001 59.2587C241.124 56.0594 236.721 45.7069 232.245 35.699C231.441 33.9025 229.9 32.5653 227.982 33.0247V33.0329Z"
          fill="#407BFF"/>
    <path opacity="0.8"
          d="M227.982 33.0329C224.169 33.9599 218.93 36.1337 215.397 38.3404C214.143 39.1197 213.519 40.6045 213.815 42.0483C215.389 49.7921 218.988 60.161 222.874 66.7646L241.001 59.2587C241.124 56.0594 236.721 45.7069 232.245 35.699C231.441 33.9025 229.9 32.5653 227.982 33.0247V33.0329Z"
          fill="white"/>
    <path opacity="0.3"
          d="M235.045 42.0496L231.445 40.8438C232.249 42.952 235.16 45.618 237.21 47.1849C236.537 45.536 235.808 43.8215 235.045 42.0496Z"
          fill="#407BFF"/>
    <path d="M226.787 24.9128C225.295 22.0581 222.056 20.6225 218.162 20.9424C214.883 21.2131 211.98 24.5683 212.325 26.373C212.669 28.1859 215.424 28.9488 215.924 29.5804L213.653 31.2293C212.521 32.0496 212.3 33.6492 213.161 34.7485C214.12 35.9625 215.375 37.234 216.112 38.1282C222.392 37.9641 227.041 35.5688 228.713 33.2555C228.115 30.3187 228.271 27.7511 226.779 24.9046L226.787 24.9128Z"
          fill="#407BFF"/>
    <path opacity="0.8"
          d="M226.787 24.9128C225.295 22.0581 222.056 20.6225 218.162 20.9424C214.883 21.2131 211.98 24.5683 212.325 26.373C212.669 28.1859 215.424 28.9488 215.924 29.5804L213.653 31.2293C212.521 32.0496 212.3 33.6492 213.161 34.7485C214.12 35.9625 215.375 37.234 216.112 38.1282C222.392 37.9641 227.041 35.5688 228.713 33.2555C228.115 30.3187 228.271 27.7511 226.779 24.9046L226.787 24.9128Z"
          fill="white"/>
    <path d="M223.706 26.6772C224.952 29.8764 223.378 33.4777 220.181 34.7246C216.983 35.9714 213.384 34.3964 212.138 31.1972C210.892 27.9979 212.466 24.3967 215.663 23.1498C218.861 21.9029 222.46 23.4779 223.706 26.6772Z"
          fill="#263238"/>
    <path d="M276.933 100.603C276.843 97.9036 276.729 98.1743 276.647 95.8774C276.597 94.4829 276.589 92.9325 276.581 91.5954C276.573 90.291 275.646 89.1672 274.367 88.9047C273.277 88.6832 272.195 88.4781 271.104 88.2402C269.686 87.9367 268.292 87.6168 266.899 87.2066C265.825 86.8949 264.751 86.5504 263.701 86.1648C262.57 85.7547 261.455 85.3117 260.348 84.8359C259.053 84.2781 257.782 83.6874 256.511 83.0804C255.093 82.3995 253.691 81.7023 252.297 80.9886C246.902 72.047 246.788 66.1653 240.991 59.25L228.562 64.8774C228.562 64.8774 237.696 81.087 243.91 87.9613C247.493 91.9153 253.109 93.7036 258.118 94.9915C261.734 95.9267 265.398 96.6403 269.063 97.313C270.489 97.5755 272.039 97.674 273.269 98.5271C274.236 99.1997 274.736 100.25 275.023 101.357C275.081 101.587 275.13 101.817 275.171 102.046C275.302 102.735 276.974 102.219 276.917 100.586L276.933 100.603Z"
          fill="#407BFF"/>
    <path opacity="0.8"
          d="M276.933 100.603C276.843 97.9036 276.729 98.1743 276.647 95.8774C276.597 94.4829 276.589 92.9325 276.581 91.5954C276.573 90.291 275.646 89.1672 274.367 88.9047C273.277 88.6832 272.195 88.4781 271.104 88.2402C269.686 87.9367 268.292 87.6168 266.899 87.2066C265.825 86.8949 264.751 86.5504 263.701 86.1648C262.57 85.7547 261.455 85.3117 260.348 84.8359C259.053 84.2781 257.782 83.6874 256.511 83.0804C255.093 82.3995 253.691 81.7023 252.297 80.9886C246.902 72.047 246.788 66.1653 240.991 59.25L228.562 64.8774C228.562 64.8774 237.696 81.087 243.91 87.9613C247.493 91.9153 253.109 93.7036 258.118 94.9915C261.734 95.9267 265.398 96.6403 269.063 97.313C270.489 97.5755 272.039 97.674 273.269 98.5271C274.236 99.1997 274.736 100.25 275.023 101.357C275.081 101.587 275.13 101.817 275.171 102.046C275.302 102.735 276.974 102.219 276.917 100.586L276.933 100.603Z"
          fill="white"/>
    <path opacity="0.3"
          d="M270.639 88.141C270.147 88.0344 269.655 87.9277 269.154 87.8047C269.195 90.6348 267.867 95.5321 267.375 97.0087C267.892 97.1072 268.416 97.2056 268.933 97.304C270.376 93.4075 270.598 89.2895 270.63 88.1328L270.639 88.141Z"
          fill="#407BFF"/>
    <path opacity="0.3"
          d="M276.586 91.5965C276.578 90.284 275.66 89.1684 274.381 88.9059C274.126 88.8566 273.856 88.7992 273.602 88.75C273.659 89.5211 274.135 90.4153 274.938 91.1289C275.463 91.6047 276.062 91.9164 276.603 92.0641C276.603 91.9 276.603 91.7442 276.594 91.5965H276.586Z"
          fill="#407BFF"/>
    <path d="M222.547 26.7334C222.875 27.9803 221.489 29.2846 220.374 28.21C219.472 27.3404 218.111 25.872 216.996 25.183C215.856 24.4693 217.373 23.2224 219.169 23.7064C220.842 24.1576 222.211 25.4947 222.547 26.7334Z"
          fill="white"/>
    <path d="M222.64 66.3728C222.066 66.5861 223.116 67.5704 223.116 67.5704C223.116 67.5704 234.569 63.6411 241.554 59.5969C241.612 58.752 240.997 58.3008 240.997 58.3008C240.997 58.3008 232.495 62.7305 222.632 66.3728H222.64Z"
          fill="#407BFF"/>
    <path opacity="0.5"
          d="M222.64 66.3728C222.066 66.5861 223.116 67.5704 223.116 67.5704C223.116 67.5704 234.569 63.6411 241.554 59.5969C241.612 58.752 240.997 58.3008 240.997 58.3008C240.997 58.3008 232.495 62.7305 222.632 66.3728H222.64Z"
          fill="white"/>
    <path d="M231.092 32.4921C233.355 33.6323 235.478 34.8464 237.61 36.1835C238.667 36.848 239.725 37.5371 240.758 38.2754C241.807 38.9972 242.832 39.7601 243.873 40.6215L244.259 40.9414L244.742 41.3762C245.087 41.6797 245.341 41.9586 245.595 42.2375C245.857 42.5246 246.079 42.8035 246.292 43.0825C246.513 43.3614 246.726 43.6403 246.923 43.911C247.735 45.002 248.399 46.1094 249.047 47.2087C250.309 49.44 251.4 51.663 252.301 54.0584C252.703 55.1248 252.162 56.3143 251.096 56.7162C250.293 57.0197 249.424 56.7901 248.866 56.1994L248.825 56.1584C247.177 54.4111 245.595 52.5736 244.005 50.8591C242.447 49.1528 240.799 47.4056 239.463 46.6427C237.602 45.4778 235.527 44.3293 233.47 43.1891L227.272 39.7437H227.255C225.271 38.6363 224.558 36.1425 225.656 34.1573C226.73 32.2296 229.133 31.4995 231.092 32.4839V32.4921Z"
          fill="#407BFF"/>
    <path opacity="0.8"
          d="M231.092 32.4921C233.355 33.6323 235.478 34.8464 237.61 36.1835C238.667 36.848 239.725 37.5371 240.758 38.2754C241.807 38.9972 242.832 39.7601 243.873 40.6215L244.259 40.9414L244.742 41.3762C245.087 41.6797 245.341 41.9586 245.595 42.2375C245.857 42.5246 246.079 42.8035 246.292 43.0825C246.513 43.3614 246.726 43.6403 246.923 43.911C247.735 45.002 248.399 46.1094 249.047 47.2087C250.309 49.44 251.4 51.663 252.301 54.0584C252.703 55.1248 252.162 56.3143 251.096 56.7162C250.293 57.0197 249.424 56.7901 248.866 56.1994L248.825 56.1584C247.177 54.4111 245.595 52.5736 244.005 50.8591C242.447 49.1528 240.799 47.4056 239.463 46.6427C237.602 45.4778 235.527 44.3293 233.47 43.1891L227.272 39.7437H227.255C225.271 38.6363 224.558 36.1425 225.656 34.1573C226.73 32.2296 229.133 31.4995 231.092 32.4839V32.4921Z"
          fill="white"/>
    <path d="M254.271 58.0708L253.575 56.3235C253.575 56.3235 253.189 54.0922 251.795 53.4688L247.663 54.1168L247.811 54.4778C248.196 55.3227 247.901 56.7993 247.532 57.9969C247.163 59.2028 247.795 59.3423 248.311 59.1126C248.614 58.9813 248.893 58.4481 249.213 57.8739C249.361 58.1692 249.533 58.4645 249.729 58.7352L250.738 60.1216C251.172 60.7204 252 60.8763 252.624 60.4743L253.73 59.7606C254.296 59.3997 254.526 58.686 254.28 58.0626L254.271 58.0708Z"
          fill="#407BFF"/>
    <path opacity="0.8"
          d="M254.271 58.0708L253.575 56.3235C253.575 56.3235 253.189 54.0922 251.795 53.4688L247.663 54.1168L247.811 54.4778C248.196 55.3227 247.901 56.7993 247.532 57.9969C247.163 59.2028 247.795 59.3423 248.311 59.1126C248.614 58.9813 248.893 58.4481 249.213 57.8739C249.361 58.1692 249.533 58.4645 249.729 58.7352L250.738 60.1216C251.172 60.7204 252 60.8763 252.624 60.4743L253.73 59.7606C254.296 59.3997 254.526 58.686 254.28 58.0626L254.271 58.0708Z"
          fill="white"/>
    <path opacity="0.3"
          d="M227.625 41.918L226.625 42L220.484 56.8315C220.845 56.8561 221.173 56.8315 221.485 56.7494C221.485 56.7494 229.486 53.7634 231.905 52.6724C230.273 49.2927 227.617 41.918 227.617 41.918H227.625Z"
          fill="#407BFF"/>
    <path d="M216.414 45.8141C216.759 48.4884 218.759 54.165 220.481 56.8393C223.482 55.8057 228.483 53.8533 230.901 52.7623C229.27 49.3825 227.556 44.7231 226.613 42.0078C224.031 42.1801 218.407 44.3047 216.406 45.8223L216.414 45.8141Z"
          fill="white"/>
    <path opacity="0.3"
          d="M222.515 49.0237C222.179 50.1393 220.998 50.7792 219.883 50.4428C218.768 50.1065 218.128 48.9252 218.465 47.8096C218.801 46.694 219.982 46.0541 221.097 46.3904C222.212 46.7268 222.852 47.908 222.515 49.0237Z"
          fill="#407BFF"/>
    <path opacity="0.6"
          d="M224.084 46.202C223.977 46.5711 223.591 46.7762 223.222 46.6696C222.853 46.5629 222.648 46.1774 222.755 45.8082C222.861 45.4391 223.247 45.234 223.616 45.3407C223.985 45.4473 224.19 45.8328 224.084 46.202Z"
          fill="#407BFF"/>
    <path opacity="0.6"
          d="M225.912 45.4871C225.805 45.8563 225.42 46.0614 225.05 45.9547C224.681 45.8481 224.476 45.4625 224.583 45.0934C224.689 44.7242 225.083 44.5192 225.444 44.6258C225.813 44.7324 226.018 45.118 225.912 45.4871Z"
          fill="#407BFF"/>
    <path opacity="0.5" d="M228.488 51.8676L220.904 54.87L220.445 53.377L228.029 50.3828L228.488 51.8676Z"
          fill="#407BFF"/>
    <path opacity="0.2"
          d="M186.641 165.886C186.477 172.072 186.018 176.821 185.263 180.119C184.296 184.336 182.796 187.42 180.754 189.372C178.721 191.325 176.311 192.301 173.531 192.301C169.317 192.301 166.095 190.004 163.882 185.402C163.521 184.655 163.193 183.802 162.89 182.851C158.208 186.879 153.847 191.275 149.838 196.001L145.484 201.136C147.837 203.523 150.51 205.483 153.494 207.034C158.602 209.675 165.3 211.004 173.597 211.004C175.056 211.004 176.466 210.963 177.836 210.881C182.853 203.449 187.01 195.459 190.215 187.075L202.39 155.312L186.641 165.886Z"
          fill="black"/>
    <path d="M76.8906 209.192C81.4818 213.785 91.238 223.547 91.238 223.547L131.419 185.673C117.588 180.415 90.6395 195.435 76.8906 209.192Z"
          fill="#263238"/>
    <path d="M126.933 259.255C122.342 254.661 112.586 244.899 112.586 244.899L150.438 204.695C155.694 218.534 140.682 245.498 126.933 259.255Z"
          fill="#263238"/>
    <path d="M181.842 168.782L197.493 138.586L167.315 154.246C157.616 159.274 148.671 165.632 140.719 173.122L89.2734 221.578L114.549 246.869L162.978 195.393C170.463 187.436 176.809 178.478 181.842 168.782Z"
          fill="#407BFF"/>
    <path opacity="0.6"
          d="M181.842 168.782L197.493 138.586L167.315 154.246C157.616 159.274 148.671 165.632 140.719 173.122L89.2734 221.578L114.549 246.869L162.978 195.393C170.463 187.436 176.809 178.478 181.842 168.782Z"
          fill="white"/>
    <path d="M149.701 196.985C155.542 196.985 160.277 192.247 160.277 186.403C160.277 180.558 155.542 175.82 149.701 175.82C143.86 175.82 139.125 180.558 139.125 186.403C139.125 192.247 143.86 196.985 149.701 196.985Z"
          fill="white"/>
    <path d="M149.703 193.203C153.456 193.203 156.499 190.158 156.499 186.402C156.499 182.646 153.456 179.602 149.703 179.602C145.949 179.602 142.906 182.646 142.906 186.402C142.906 190.158 145.949 193.203 149.703 193.203Z"
          fill="#407BFF"/>
    <path opacity="0.3" d="M123.095 237.779L98.3516 213.022L118.61 193.941L142.164 217.509L123.095 237.779Z"
          fill="#407BFF"/>
    <path d="M82.4979 231.875C63.9694 233.384 57.8287 245.254 55.7299 261.029C54.6641 269.077 54.1886 277.214 47.4331 281.931C45.5556 283.235 46.4903 286.156 48.7694 286.082C73.6436 285.303 85.2444 273.121 86.7038 268.018C86.2037 271.242 85.474 273.794 84.6623 275.787C83.8261 277.846 86.0889 279.749 87.9663 278.568C94.9514 274.187 103.707 266.132 104.289 253.072C99.1245 245.812 82.4979 231.875 82.4979 231.875Z"
          fill="#407BFF"/>
    <path opacity="0.2"
          d="M82.4979 231.875C63.9694 233.384 57.8287 245.254 55.7299 261.029C54.6641 269.077 54.1886 277.214 47.4331 281.931C45.5556 283.235 46.4903 286.156 48.7694 286.082C73.6436 285.303 85.2444 273.121 86.7038 268.018C86.2037 271.242 85.474 273.794 84.6623 275.787C83.8261 277.846 86.0889 279.749 87.9663 278.568C94.9514 274.187 103.707 266.132 104.289 253.072C99.1245 245.812 82.4979 231.875 82.4979 231.875Z"
          fill="white"/>
    <path d="M107.131 258.691L77.4609 228.995L93.2676 225.574L110.55 242.867L107.131 258.691Z" fill="#407BFF"/>
</svg>
