<svg width="16" height="17" viewBox="0 0 16 17" fill="none" xmlns="http://www.w3.org/2000/svg">
<path d="M13.9997 7.66335H6.27301L7.80634 6.13668C7.8685 6.07452 7.91781 6.00073 7.95145 5.91952C7.98509 5.8383 8.0024 5.75126 8.0024 5.66335C8.0024 5.57544 7.98509 5.4884 7.95145 5.40718C7.91781 5.32597 7.8685 5.25218 7.80634 5.19002C7.74418 5.12786 7.67039 5.07855 7.58917 5.04491C7.50796 5.01127 7.42091 4.99396 7.33301 4.99396C7.2451 4.99396 7.15806 5.01127 7.07684 5.04491C6.99563 5.07855 6.92183 5.12786 6.85967 5.19002L4.19301 7.85668C4.13231 7.92009 4.08474 7.99485 4.05301 8.07668C3.98633 8.23899 3.98633 8.42104 4.05301 8.58335C4.08474 8.66518 4.13231 8.73995 4.19301 8.80335L6.85967 11.47C6.92165 11.5325 6.99538 11.5821 7.07662 11.6159C7.15786 11.6498 7.245 11.6672 7.33301 11.6672C7.42102 11.6672 7.50815 11.6498 7.58939 11.6159C7.67063 11.5821 7.74437 11.5325 7.80634 11.47C7.86883 11.408 7.91842 11.3343 7.95227 11.2531C7.98611 11.1718 8.00354 11.0847 8.00354 10.9967C8.00354 10.9087 7.98611 10.8215 7.95227 10.7403C7.91842 10.6591 7.86883 10.5853 7.80634 10.5234L6.27301 8.99668H13.9997C14.1765 8.99668 14.3461 8.92645 14.4711 8.80142C14.5961 8.6764 14.6663 8.50683 14.6663 8.33002C14.6663 8.15321 14.5961 7.98364 14.4711 7.85861C14.3461 7.73359 14.1765 7.66335 13.9997 7.66335ZM1.99967 2.33002C1.82286 2.33002 1.65329 2.40025 1.52827 2.52528C1.40325 2.6503 1.33301 2.81987 1.33301 2.99668V13.6634C1.33301 13.8402 1.40325 14.0097 1.52827 14.1348C1.65329 14.2598 1.82286 14.33 1.99967 14.33C2.17649 14.33 2.34605 14.2598 2.47108 14.1348C2.5961 14.0097 2.66634 13.8402 2.66634 13.6634V2.99668C2.66634 2.81987 2.5961 2.6503 2.47108 2.52528C2.34605 2.40025 2.17649 2.33002 1.99967 2.33002Z" fill="#525B75"/>
</svg>
