<svg width="480" height="30" viewBox="0 0 480 30" fill="none" xmlns="http://www.w3.org/2000/svg">
<path d="M17.9084 12.0665C16.2684 14.4597 0.550487 15.4814 0.000183565 1.76634C-0.00807504 1.56051 0.264501 1.46872 0.379926 1.63969C1.62101 3.47797 4.38515 6.53518 9.27541 5.75566C9.4312 5.73082 9.51918 5.52812 9.46393 5.381C9.1686 4.5946 8.97884 2.72194 10.1386 1.5545C10.253 1.43934 10.4457 1.51916 10.4802 1.67743C10.7001 2.68687 11.6498 4.77011 15.2144 5.04344C16.4961 5.14173 18.0135 5.50692 19.6262 6.53826C19.6947 6.58208 19.7923 6.50657 19.7751 6.42734C19.5501 5.39051 20.3453 3.95605 21.2242 3.57448C21.3424 3.52315 21.4611 3.62079 21.4683 3.749C21.5699 5.56006 22.7596 6.99834 24.0299 8.53415C26.2604 11.2307 28.7396 14.2279 26.0143 20.0714C25.8822 20.3546 25.5243 20.4568 25.2517 20.3024C21.7171 18.2993 18.9632 19.2737 17.7454 19.9392C16.6825 20.5201 15.1216 22.5374 15.6165 24.9377C15.7445 25.5589 15.5319 26.2407 14.9691 26.5377L11.5326 28.3518C10.8851 28.6935 10.0715 28.4275 9.8674 27.7268C8.92961 24.508 10.0382 21.1181 12.3185 18.8062C15.084 16.0023 20.4119 14.9561 23.7059 16.758C23.8434 16.8332 24.0169 16.7384 24.0158 16.5822C23.9852 12.345 20.4315 11.2719 18.666 10.7387C18.3903 10.6555 18.1582 10.5854 17.9899 10.5184C17.5413 10.34 17.0796 10.1522 16.7352 9.74979C16.6412 9.63992 16.4796 9.649 16.4906 9.79293C16.5361 10.3886 17.353 11.4116 17.8525 11.8192C17.9293 11.8819 17.9644 11.9848 17.9084 12.0665Z" fill="url(#paint0_linear_1351_4618)"/>
<path d="M22.2262 14.0575C22.5394 14.3161 22.8758 14.7236 22.9507 15.2475C22.9625 15.3303 22.8634 15.3888 22.7871 15.3536C22.5369 15.2382 22.0988 15.0796 21.6548 14.9493C21.295 14.8437 21.1672 14.2865 21.4722 14.0692C21.7017 13.9056 22.0089 13.8781 22.2262 14.0575Z" fill="url(#paint1_linear_1351_4618)"/>
<path d="M37.3317 23V5.375H39.3067L50.0317 19.525H49.4067V5.375H51.8067V23H49.8817L39.1567 8.85H39.7317V23H37.3317ZM60.9358 23.225C59.7025 23.225 58.6358 22.9667 57.7358 22.45C56.8525 21.9333 56.1608 21.2 55.6608 20.25C55.1608 19.3 54.9108 18.1833 54.9108 16.9C54.9108 15.6 55.1608 14.4833 55.6608 13.55C56.1608 12.6 56.8525 11.8667 57.7358 11.35C58.6358 10.8333 59.7025 10.575 60.9358 10.575C62.1525 10.575 63.2025 10.8333 64.0858 11.35C64.9858 11.8667 65.6858 12.6 66.1858 13.55C66.6858 14.5 66.9358 15.6167 66.9358 16.9C66.9358 18.1833 66.6858 19.3 66.1858 20.25C65.6858 21.2 64.9858 21.9333 64.0858 22.45C63.2025 22.9667 62.1525 23.225 60.9358 23.225ZM60.9108 21.275C61.9608 21.275 62.8025 20.9 63.4358 20.15C64.0692 19.4 64.3858 18.3167 64.3858 16.9C64.3858 15.4667 64.0692 14.3833 63.4358 13.65C62.8025 12.9167 61.9608 12.55 60.9108 12.55C59.8775 12.55 59.0442 12.9167 58.4108 13.65C57.7775 14.3833 57.4608 15.4667 57.4608 16.9C57.4608 18.3167 57.7775 19.4 58.4108 20.15C59.0442 20.9 59.8775 21.275 60.9108 21.275ZM73.1269 23L67.8769 10.8H70.6019L74.6769 20.925H73.9769L78.1519 10.8H80.7269L75.4019 23H73.1269ZM88.0454 23.225C86.7121 23.225 85.5621 22.975 84.5954 22.475C83.6454 21.9583 82.9037 21.2333 82.3704 20.3C81.8537 19.35 81.5954 18.225 81.5954 16.925C81.5954 15.6583 81.8537 14.55 82.3704 13.6C82.8871 12.65 83.5954 11.9083 84.4954 11.375C85.3954 10.8417 86.4204 10.575 87.5704 10.575C88.7037 10.575 89.6704 10.825 90.4704 11.325C91.2871 11.8083 91.9121 12.5 92.3454 13.4C92.7787 14.3 92.9954 15.375 92.9954 16.625V17.475H83.5954V15.925H91.2954L90.8704 16.275C90.8704 15.025 90.5954 14.0583 90.0454 13.375C89.4954 12.6917 88.7037 12.35 87.6704 12.35C86.8871 12.35 86.2204 12.5333 85.6704 12.9C85.1371 13.2667 84.7287 13.775 84.4454 14.425C84.1621 15.075 84.0204 15.8333 84.0204 16.7V16.85C84.0204 17.8167 84.1704 18.6333 84.4704 19.3C84.7871 19.95 85.2454 20.4417 85.8454 20.775C86.4454 21.1083 87.1871 21.275 88.0704 21.275C88.7704 21.275 89.4537 21.1667 90.1204 20.95C90.8037 20.7167 91.4454 20.3583 92.0454 19.875L92.7954 21.625C92.2454 22.125 91.5371 22.5167 90.6704 22.8C89.8037 23.0833 88.9287 23.225 88.0454 23.225ZM95.7481 23V10.8H98.1981V13.4H97.9231C98.2898 12.4667 98.8648 11.7667 99.6481 11.3C100.431 10.8167 101.331 10.575 102.348 10.575C103.315 10.575 104.115 10.7583 104.748 11.125C105.398 11.475 105.881 12.0167 106.198 12.75C106.515 13.4667 106.673 14.375 106.673 15.475V23H104.148V15.625C104.148 14.925 104.056 14.3583 103.873 13.925C103.69 13.475 103.415 13.1417 103.048 12.925C102.681 12.7083 102.206 12.6 101.623 12.6C100.956 12.6 100.365 12.7417 99.8481 13.025C99.3481 13.3083 98.9565 13.7167 98.6731 14.25C98.4065 14.7833 98.2731 15.4 98.2731 16.1V23H95.7481ZM115.352 23.225C113.836 23.225 112.694 22.8333 111.927 22.05C111.177 21.2667 110.802 20.1333 110.802 18.65V12.75H108.427V10.8H110.802V7.125H113.327V10.8H117.102V12.75H113.327V18.45C113.327 19.3333 113.511 20 113.877 20.45C114.261 20.9 114.877 21.125 115.727 21.125C115.977 21.125 116.227 21.0917 116.477 21.025C116.744 20.9583 117.002 20.8917 117.252 20.825L117.652 22.725C117.402 22.875 117.052 22.9917 116.602 23.075C116.169 23.175 115.752 23.225 115.352 23.225ZM124.886 23.225C123.553 23.225 122.403 22.975 121.436 22.475C120.486 21.9583 119.745 21.2333 119.211 20.3C118.695 19.35 118.436 18.225 118.436 16.925C118.436 15.6583 118.695 14.55 119.211 13.6C119.728 12.65 120.436 11.9083 121.336 11.375C122.236 10.8417 123.261 10.575 124.411 10.575C125.545 10.575 126.511 10.825 127.311 11.325C128.128 11.8083 128.753 12.5 129.186 13.4C129.62 14.3 129.836 15.375 129.836 16.625V17.475H120.436V15.925H128.136L127.711 16.275C127.711 15.025 127.436 14.0583 126.886 13.375C126.336 12.6917 125.545 12.35 124.511 12.35C123.728 12.35 123.061 12.5333 122.511 12.9C121.978 13.2667 121.57 13.775 121.286 14.425C121.003 15.075 120.861 15.8333 120.861 16.7V16.85C120.861 17.8167 121.011 18.6333 121.311 19.3C121.628 19.95 122.086 20.4417 122.686 20.775C123.286 21.1083 124.028 21.275 124.911 21.275C125.611 21.275 126.295 21.1667 126.961 20.95C127.645 20.7167 128.286 20.3583 128.886 19.875L129.636 21.625C129.086 22.125 128.378 22.5167 127.511 22.8C126.645 23.0833 125.77 23.225 124.886 23.225ZM132.589 23V10.8H135.039V13.725H134.789C135.056 12.725 135.531 11.9667 136.214 11.45C136.914 10.9333 137.839 10.6333 138.989 10.55L139.814 10.5L139.989 12.65L138.464 12.8C137.381 12.9 136.556 13.2417 135.989 13.825C135.422 14.4083 135.139 15.2083 135.139 16.225V23H132.589Z" fill="#31374A"/>
<defs>
<linearGradient id="paint0_linear_1351_4618" x1="18.6474" y1="-10.7344" x2="56.5909" y2="33.3119" gradientUnits="userSpaceOnUse">
<stop stop-color="#EDA65B"/>
<stop offset="1" stop-color="#FA5A42"/>
</linearGradient>
<linearGradient id="paint1_linear_1351_4618" x1="18.6474" y1="-10.7344" x2="56.5909" y2="33.3119" gradientUnits="userSpaceOnUse">
<stop stop-color="#EDA65B"/>
<stop offset="1" stop-color="#FA5A42"/>
</linearGradient>
</defs>
</svg>
